<?xml version="1.0" encoding="utf-8"?>
<!-- Generator: Adobe Illustrator 16.0.0, SVG Export Plug-In . SVG Version: 6.00 Build 0)  -->
<!DOCTYPE svg PUBLIC "-//W3C//DTD SVG 1.1//EN" "http://www.w3.org/Graphics/SVG/1.1/DTD/svg11.dtd">
<svg id="thumbs_down" version="1.1" xmlns="http://www.w3.org/2000/svg" xmlns:xlink="http://www.w3.org/1999/xlink" x="0px" y="0px"
	viewBox="0 0 32 32" enable-background="new 0 0 32 32" xml:space="preserve">
	<path fill="currentColor" d="M27.1,16.2l-0.7-4.1l-3.2-4.3l-2.9-1.3l-5.4,1.7l-2.1,0.4V6.3h-8v14h8v-0.9l2.2,0.9l1.8,2.5l1.5,3.6h3.2l0.7-3.7l-1.2-3.2
		l1.6-0.4l2.2-0.8L27.1,16.2z M10.7,18.3h-4v-10h4V18.3z M24.9,15.4l-1.3,1L21.8,17l-3.7,0.9l1.8,4.9l-0.3,1.5h-0.2l-1.1-2.7
		l-2.3-2.9l-3.4-1.5v-6.6l2.7-0.5L20,8.6l1.8,0.8l2.7,3.5L24.9,15.4z"/>
</svg>
