<?xml version="1.0" encoding="utf-8"?>
<!-- Generator: Adobe Illustrator 16.0.0, SVG Export Plug-In . SVG Version: 6.00 Build 0)  -->
<!DOCTYPE svg PUBLIC "-//W3C//DTD SVG 1.1//EN" "http://www.w3.org/Graphics/SVG/1.1/DTD/svg11.dtd">
<svg id="thumbs_up" version="1.1" xmlns="http://www.w3.org/2000/svg" xmlns:xlink="http://www.w3.org/1999/xlink" x="0px" y="0px"
	viewBox="0 0 32 32" enable-background="new 0 0 32 32" xml:space="preserve">
	<path fill="currentColor" d="M24.6,14.1l-2.2-0.8l-1.6-0.4l1.2-3.1l-0.7-3.5h-3.2l-1.5,3.4l-1.8,2.3l-2.2,0.9v-0.6h-8v14h8v-2.6l2.1,0.4l5.4,1.7
		l2.9-1.3l3.2-4.3l0.7-4.1L24.6,14.1z M10.7,24.3h-4v-10h4V24.3z M24.4,19.4l-2.7,3.5L20,23.7l-4.6-1.5l-2.7-0.5v-6.6l3.4-1.4
		l2.3-2.8l1.1-2.6h0.2L20,9.6l-1.8,4.8l3.7,0.9l1.7,0.6l1.3,1L24.4,19.4z"/>
</svg>
